<?xml version="1.0" encoding="utf-8"?>
<!-- Generator: Adobe Illustrator 28.0.0, SVG Export Plug-In . SVG Version: 6.00 Build 0)  -->
<svg version="1.1" id="レイヤー_2" xmlns="http://www.w3.org/2000/svg" xmlns:xlink="http://www.w3.org/1999/xlink" x="0px"
	y="0px" viewBox="0 0 500 500" style="enable-background:new 0 0 500 500;" xml:space="preserve">
<style type="text/css">
	.st0{fill:#333333;}
	.st1{fill:#323333;}
	.st2{fill:none;stroke:url(#SVGID_1_);stroke-width:8;stroke-linecap:round;stroke-miterlimit:10;}
	.st3{fill:none;stroke:#323333;stroke-width:8;stroke-linecap:round;stroke-miterlimit:10;}
</style>
<path class="st0" d="M442.87,304.5c-1.21,66.37-46.07,56.89-57.01,53.55c-15.91-4.84-51.05-40.92-54.51-31.44
	c-1.99,13.09,7.01,42.41,7.99,45.65c17.99,42.14,12.03,46.96-22.9,12.9c-3.92,9.82,9.57,22.03,12.93,37.4
	c14.41,43.66-9.08,60.5-69.91,61.53c-1.65,1.36,83.62-13.53,64.35-60c-15.52-30.78-31.54-77.77,10.52-40.38
	c2.71-2.74-19.68-84.87-2.6-75.22c23.13,13.07,69.09,56.31,90.44,34.17C434.08,330.31,442.87,304.5,442.87,304.5z"/>
<path class="st0" d="M401.53,355.76"/>
<path class="st1" d="M57.73,361.55C69.74,260.27,206.63,67.48,364.32,17.84c-3.16,120.04-119.98,122.99-76.63,127.86
	c10.64,1.12,18.41-3.26,18.41-3.26c2.84,31.64-24.88,94.52-69.01,94.93c-2.85,2.93,36.1,11.62,40.31,5.02
	c-2.49,21.45-31.11,98.02-76.46,72.62c-1.83,2.18,38.48,14.92,39.98,10.41C218.52,382.92,86.42,353.02,57.73,361.55z"/>
<linearGradient id="SVGID_1_" gradientUnits="userSpaceOnUse" x1="415.8684" y1="336.2344" x2="415.8684" y2="139.6524">
	<stop  offset="0.6028" style="stop-color:#323333"/>
	<stop  offset="1" style="stop-color:#FFFFFF;stop-opacity:0"/>
</linearGradient>
<path class="st2" d="M434.53,332.23c18.09-64.84,1.2-138.89-44.45-188.58"/>
<path class="st3" d="M57.73,380.03C106,468.06,225.99,505.76,317.5,467.11"/>
<g>
</g>
<g>
</g>
<g>
</g>
<g>
</g>
<g>
</g>
<g>
</g>
</svg>
